<?xml version="1.0" encoding="utf-8"?>
<!-- Generator: Adobe Illustrator 25.2.3, SVG Export Plug-In . SVG Version: 6.00 Build 0)  -->
<svg version="1.1" id="Layer_1" xmlns="http://www.w3.org/2000/svg" xmlns:xlink="http://www.w3.org/1999/xlink" x="0px" y="0px"
	 viewBox="0 0 192.4 193.6" style="enable-background:new 0 0 192.4 193.6;" xml:space="preserve">
<style type="text/css">
	.st0{fill:none;stroke:#7F7F7F;stroke-width:4;stroke-miterlimit:10;}
	.st1{fill:#7F7F7F;}
</style>
<circle class="st0" cx="95.5" cy="96.7" r="87.5"/>
<g>
	<g>
		<g>
			<g>
				<path class="st1" d="M136.8,99.3c-0.1,0-4-2.6-8.7-5.9L96.6,72c-0.6-0.4-1.4-0.4-2,0L63.1,93.5c-4.7,3.2-8.7,5.9-8.7,5.9
					c-0.1,0-0.1,3.9-0.1,8.8v26.1c0,0.6,0.7,1.1,1.5,1.1h25.6c0.8,0,1.5-0.5,1.5-1.1v-27c0-1.3,1.4-2.4,3.1-2.4h19.2
					c1.7,0,3.1,1.1,3.1,2.4v27c0,0.6,0.7,1.1,1.5,1.1h25.7c0.8,0,1.5-0.5,1.5-1.1v-26.1C137,103.3,136.9,99.3,136.8,99.3z"/>
				<path class="st1" d="M139.2,87.2l-14.5-9.9c0,0,0,0,0,0V66.4c0-0.5-0.4-0.9-0.9-0.9h-10.4c-0.5,0-0.9,0.4-0.9,0.9V69L97.4,58.6
					c-1.1-0.8-2.6-0.8-3.8,0L51.8,86.8c-1.9,1.3-2.4,3.8-1.1,5.6c1.3,1.9,3.8,2.4,5.6,1.1l39.1-26.4l39.2,26.8
					c0.7,0.5,1.5,0.7,2.3,0.7c1.3,0,2.6-0.6,3.4-1.8C141.6,91,141.1,88.4,139.2,87.2z"/>
			</g>
		</g>
	</g>
</g>
</svg>
