<?xml version="1.0" encoding="utf-8"?>
<!-- Generator: Adobe Illustrator 25.2.3, SVG Export Plug-In . SVG Version: 6.00 Build 0)  -->
<svg version="1.1" id="Layer_1" xmlns="http://www.w3.org/2000/svg" xmlns:xlink="http://www.w3.org/1999/xlink" x="0px" y="0px"
	 viewBox="0 0 340 107" style="enable-background:new 0 0 340 107;" xml:space="preserve">
<style type="text/css">
	.st0{fill:#EE3A38;}
</style>
<g id="medalian">
	<path class="st0" d="M21,92.8v-11H10.7C13.6,85.9,17,89.6,21,92.8"/>
	<path class="st0" d="M52.7,2C24.6,2,1.8,24.8,1.8,52.9c0,6.9,1.4,13.5,3.9,19.5H21v-7.6c0-17.7,3.7-31.1,11-40.4
		s16.4-13.9,27.2-13.9c8,0,14.3,2,18.8,5.9s6.8,9.1,6.8,15.4c0,4.1-1.1,7.4-3.3,9.8c-2.2,2.4-4.9,3.6-8.3,3.6c-3,0-5.5-1-7.4-2.9
		c-2-1.9-2.9-4.3-2.9-7.3c0-3.3,1.3-6.1,3.8-8.2c2.1-1.7,3.1-3,3.1-3.8c0-1.2-0.8-2.3-2.4-3.3s-4-1.5-7.2-1.5
		c-6.1,0-11.1,2.7-15.3,8.1s-6.2,13.4-6.2,24v22.2h33.4v9.3H38.7V102c4.4,1.3,9.1,1.9,14,1.9c28.1,0,50.9-22.8,50.9-50.9
		C103.6,24.8,80.8,2,52.7,2"/>
</g>
<g id="found">
	<path d="M132.5,41.6c1.1,0.2,1.8,0.9,1.8,2s-0.9,1.9-2,1.9c-0.7,0-1.2-0.2-2.2-0.2c-1.5,0-2.4,1.1-2.4,2.3v2.7h4.4
		c1.4,0,2.2,0.9,2.2,2.2c0,1.2-0.8,2.2-2.2,2.2h-4.4v16.2c0,1.4-1,2.2-2.2,2.2c-1.3,0-2.3-0.9-2.3-2.2V48c0-4.3,2.6-6.7,6.6-6.7
		C130.8,41.3,131.5,41.4,132.5,41.6z"/>
	<path d="M154.4,59v4.8c0,5.8-3.3,9.2-9.2,9.2c-5.7,0-9.3-3.3-9.3-9.2V59c0-5.9,3.5-9.2,9.3-9.2S154.4,53.2,154.4,59z M140.4,58.8
		v5.3c0,3.1,1.8,4.8,4.8,4.8s4.7-1.7,4.7-4.8v-5.3c0-3.1-1.8-4.8-4.7-4.8S140.4,55.7,140.4,58.8z"/>
	<path d="M176.3,52.1v17.3c0,1.2-0.7,2.2-2,2.6c-2.2,0.7-4.4,1.1-6.9,1.1c-5.9,0-8.9-2.9-8.9-8.7V52.1c0-1.3,1-2.2,2.2-2.2
		c1.3,0,2.3,0.9,2.3,2.2v12.5c0,2.8,1.5,4.4,4.4,4.4c1.5,0,2.9-0.3,4.3-0.6V52.1c0-1.3,1-2.2,2.2-2.2
		C175.3,49.8,176.3,50.8,176.3,52.1z"/>
	<path d="M199.3,58.5v12.3c0,1.3-1,2.2-2.2,2.2c-1.3,0-2.3-0.9-2.3-2.2V58.3c0-2.8-1.5-4.3-4.4-4.3c-1.5,0-2.9,0.2-4.3,0.6v16.2
		c0,1.3-1,2.2-2.2,2.2c-1.3,0-2.3-0.9-2.3-2.2V53.6c0-1.2,0.7-2.2,2-2.6c2.2-0.7,4.4-1.1,6.9-1.1C196.3,49.8,199.3,52.8,199.3,58.5z
		"/>
	<path d="M221.5,43.5v25.7c0,1.2-0.7,2.2-1.9,2.6c-2.2,0.7-4.6,1.1-7,1.1c-5.5,0-8.9-2.9-8.9-8.8v-5.7c0-5.8,3.4-8.8,8.4-8.8
		c1.4,0,3.3,0.4,4.8,1.3v-7.6c0-1.3,1-2.2,2.2-2.2C220.5,41.3,221.5,42.2,221.5,43.5z M208.2,58.3v6.2c0,2.8,1.5,4.4,4.4,4.4
		c1.5,0,3-0.2,4.4-0.6V55.5c-1.3-0.9-2.7-1.5-4.4-1.5C209.7,54,208.2,55.5,208.2,58.3z"/>
</g>
<g id="digital">
	<path class="st0" d="M249.7,43.5v25.7c0,1.2-0.7,2.2-1.9,2.6c-2.2,0.7-4.6,1.1-7,1.1c-5.5,0-8.9-2.9-8.9-8.8v-5.7
		c0-5.8,3.4-8.8,8.4-8.8c1.4,0,3.3,0.4,4.8,1.3v-7.6c0-1.3,1-2.2,2.2-2.2C248.8,41.3,249.7,42.2,249.7,43.5z M236.5,58.3v6.2
		c0,2.8,1.5,4.4,4.4,4.4c1.5,0,3-0.2,4.4-0.6V55.5c-1.3-0.9-2.7-1.5-4.4-1.5C238,54,236.5,55.5,236.5,58.3z"/>
	<path class="st0" d="M259.9,43.9c0,1.5-1.2,2.7-2.6,2.7c-1.5,0-2.6-1.2-2.6-2.7s1.2-2.6,2.6-2.6C258.7,41.3,259.9,42.5,259.9,43.9z
		 M259.5,52.1v18.7c0,1.3-0.9,2.2-2.2,2.2c-1.3,0-2.3-0.9-2.3-2.2V52.1c0-1.3,1-2.2,2.3-2.2C258.6,49.8,259.5,50.8,259.5,52.1z"/>
	<path class="st0" d="M280.1,51c1.2,0.4,1.9,1.4,1.9,2.6v20.1c0,5.1-3.4,8.7-8.8,8.7c-2.6,0-4.9-0.5-6.8-1.5
		c-0.7-0.4-1.1-1.1-1.1-1.8c0-1.1,0.7-2,2-2c0.4,0,0.7,0.1,1.1,0.3c1.6,0.7,2.9,1.1,4.8,1.1c3.2,0,4.5-2.1,4.5-4.6v-2.2
		c-1.5,0.9-3.1,1.4-4.9,1.4c-5.6,0-8.6-3.2-8.6-8.8v-5.6c0-5.9,3.4-8.8,8.9-8.8C275.5,49.8,277.8,50.2,280.1,51z M268.7,58.3v6.2
		c0,3,1.6,4.4,4.4,4.4c1.5,0,3.1-0.6,4.4-1.5V54.6c-1.4-0.4-2.9-0.6-4.4-0.6C270.2,54,268.7,55.6,268.7,58.3z"/>
	<path class="st0" d="M292.2,43.9c0,1.5-1.2,2.7-2.6,2.7c-1.5,0-2.6-1.2-2.6-2.7s1.2-2.6,2.6-2.6C291,41.3,292.2,42.5,292.2,43.9z
		 M291.8,52.1v18.7c0,1.3-0.9,2.2-2.2,2.2c-1.3,0-2.3-0.9-2.3-2.2V52.1c0-1.3,1-2.2,2.3-2.2C290.9,49.8,291.8,50.8,291.8,52.1z"/>
	<path class="st0" d="M301.6,43.5v6.7h4.3c1.5,0,2.2,0.9,2.2,2.2c0,1.2-0.8,2.2-2.2,2.2h-4.3v11.6c0,1.8,0.8,2.6,2.2,2.6
		c1.1,0,1.5-0.2,2.2-0.2c1.2,0,2.1,0.7,2.1,2.1c0,1.1-0.8,1.9-1.9,2.1c-0.9,0.2-1.6,0.3-2.6,0.3c-3.7,0-6.6-2.4-6.6-7V43.5
		c0-1.3,1-2.2,2.3-2.2S301.6,42.2,301.6,43.5z"/>
	<path class="st0" d="M327.5,57.1v12.5c0,1-0.6,2.1-1.8,2.5c-1.8,0.6-4.3,1.1-6.8,1.1c-5.5,0-9.2-2.1-9.2-7.1c0-5.1,4.2-7,9.2-7h4
		v-1.8c0-1.7-1.3-3.1-3.9-3.1c-1.5,0-2.7,0.2-3.9,0.8c-0.7,0.4-1.3,0.7-2,0.7c-1.1,0-2.1-0.9-2.1-2.1c0-0.7,0.4-1.4,1.1-1.8
		c1.2-0.7,3.7-1.7,6.8-1.7C323.7,49.8,327.5,52.2,327.5,57.1z M318.9,63c-2.7,0-4.5,0.7-4.5,2.9c0,2.3,1.8,2.9,4.6,2.9
		c1.4,0,2.7-0.2,4-0.5V63H318.9z"/>
	<path class="st0" d="M337,43.5v27.2c0,1.3-1,2.2-2.2,2.2c-1.3,0-2.3-0.9-2.3-2.2V43.5c0-1.3,1-2.2,2.3-2.2
		C336,41.3,337,42.2,337,43.5z"/>
</g>
</svg>
