<?xml version="1.0" encoding="utf-8"?>
<!-- Generator: Adobe Illustrator 25.2.3, SVG Export Plug-In . SVG Version: 6.00 Build 0)  -->
<svg version="1.1" id="Layer_1" xmlns="http://www.w3.org/2000/svg" xmlns:xlink="http://www.w3.org/1999/xlink" x="0px" y="0px"
	 viewBox="0 0 188 190.4" style="enable-background:new 0 0 188 190.4;" xml:space="preserve">
<style type="text/css">
	.st0{fill:#F7941E;}
	.st1{fill:#FFFFFF;}
</style>
<g>
	<path class="st0" d="M183.1,96.2c0,49.1-39.8,88.8-88.8,88.8c-49.1,0-88.8-39.8-88.8-88.8S45.2,7.4,94.3,7.4
		C143.3,7.4,183.1,47.2,183.1,96.2"/>
	<path class="st1" d="M181.3,95.5c0,11.6-9.4,21.1-21.1,21.1c-11.6,0-21.1-9.4-21.1-21.1c0-11.6,9.4-21.1,21.1-21.1
		C171.9,74.4,181.3,83.8,181.3,95.5"/>
	<polygon class="st1" points="24.9,76.5 35.9,76.5 35.9,104.5 52.9,104.5 52.9,114.5 24.9,114.5 	"/>
	<path class="st1" d="M56.9,97.5v-21h10v21.2c0,5.4,2.3,8,6.5,8c4.2,0,6.5-2.5,6.5-7.7V76.5h11v21.2c0,12.1-6.7,17.4-17.3,17.4
		c-10.6,0-16.9-5.4-16.9-17.1"/>
	<polygon class="st1" points="95.9,76.5 106.8,76.5 115.7,91 124.7,76.5 135.9,76.5 135.9,114.5 124.9,114.5 124.9,92.8 
		115.7,107.5 115.5,107.5 105.9,92.9 105.9,114.5 95.9,114.5 	"/>
	<polygon class="st1" points="95.9,121.5 104.9,121.5 104.9,124.5 98.9,124.5 98.9,125.5 103.9,125.5 103.9,128.5 98.9,128.5 
		98.9,129.5 104.9,129.5 104.9,132.5 95.9,132.5 	"/>
	<polygon class="st1" points="106.9,121.5 110.4,121.5 114.9,127.5 114.9,121.5 117.9,121.5 117.9,132.5 115.4,132.5 110.9,126.7 
		110.9,132.5 106.9,132.5 	"/>
	<polygon class="st1" points="120.9,121.5 129.9,121.5 129.9,124.5 123.9,124.5 123.9,125.5 128.9,125.5 128.9,128.5 123.9,128.5 
		123.9,129.5 129.9,129.5 129.9,132.5 120.9,132.5 	"/>
	<path class="st1" d="M131.9,121.5h5.4c1.7,0,2.9,0.5,3.6,1.3c0.7,0.6,0.9,1.6,0.9,2.7v0c0,1.7-0.9,2.7-2.3,3.3l2.7,3.7h-3.6l-2.3-3
		h0h-0.6v3h-4V121.5z M137.1,126.5c1.1,0,1.7,0,1.7-0.8v0c0-0.9-0.7-1.1-1.7-1.1h-1.3v2H137.1z"/>
	<path class="st1" d="M143.9,127.5v-0.3c0-3.3,2.3-5.8,5.8-5.8c2,0,3.2,0.6,4.4,1.6l-1.9,2.2c-0.8-0.7-1.5-1.1-2.6-1.1
		c-1.6,0-2.7,1.4-2.7,3.1v0c0,1.8,0.8,3.1,2.6,3.1c0.8,0,1.4-0.2,1.4-0.5v-1.4h-2v-2h5v4.8c-1,1-2.4,1.7-4.5,1.7
		c-3.5,0-5.7-2.5-5.7-5.9"/>
	<polygon class="st1" points="158.9,128.6 154.8,121.5 158.3,121.5 160.6,125.6 163,121.5 166.5,121.5 161.9,128.6 161.9,132.5 
		158.9,132.5 	"/>
</g>
</svg>
