<?xml version="1.0" encoding="utf-8"?>
<!-- Generator: Adobe Illustrator 25.2.3, SVG Export Plug-In . SVG Version: 6.00 Build 0)  -->
<svg version="1.1" id="Layer_1" xmlns="http://www.w3.org/2000/svg" xmlns:xlink="http://www.w3.org/1999/xlink" x="0px" y="0px"
	 viewBox="0 0 191 57" style="enable-background:new 0 0 191 57;" xml:space="preserve">
<style type="text/css">
	.st0{fill:#009FDA;}
</style>
<g>
	<path class="st0" d="M54.5,44.8h-3l1.5-3.8L54.5,44.8z M54.8,36.6c-0.1-0.2-0.3-0.4-0.6-0.4h-2c-0.2,0-0.5,0.2-0.6,0.4l-5.6,14
		c-0.1,0.2-0.1,0.4,0.1,0.6c0.1,0.2,0.3,0.3,0.5,0.3h1.8c0.2,0,0.5-0.2,0.6-0.4l1.4-3.5h5.1L57,51c0.1,0.2,0.3,0.4,0.6,0.4h2.1
		c0.2,0,0.4-0.1,0.5-0.3c0.1-0.2,0.1-0.4,0.1-0.6L54.8,36.6z"/>
	<path class="st0" d="M71.5,36.2h-1.7c-0.3,0-0.6,0.3-0.6,0.6v8.9c0,1.4-0.2,2-0.3,2.3c-0.2,0.4-0.4,0.6-0.8,0.8
		c-0.4,0.2-0.8,0.3-1.4,0.3c-0.9,0-1.5-0.2-2-0.7c-0.4-0.4-0.7-1.4-0.7-2.7v-8.8c0-0.3-0.3-0.6-0.6-0.6h-2c-0.3,0-0.6,0.3-0.6,0.6
		v8.8c0,1.6,0.2,2.7,0.6,3.5c0.4,0.8,1.1,1.5,1.9,1.9c0.8,0.5,1.9,0.7,3.2,0.7c1.2,0,2.2-0.2,3-0.7c0.8-0.4,1.4-1.1,1.8-1.8
		c0.4-0.8,0.6-1.9,0.6-3.6v-8.9C72.2,36.5,71.9,36.2,71.5,36.2"/>
	<path class="st0" d="M80.1,42.4l-1-0.6c-0.5-0.3-0.9-0.6-1.2-0.8c-0.2-0.2-0.4-0.4-0.6-0.6c-0.1-0.2-0.2-0.4-0.2-0.6
		c0-0.3,0.1-0.6,0.4-0.9c0.3-0.3,0.7-0.4,1.4-0.4c0.3,0,0.7,0,1,0.1c0.2,0.1,0.8,0.2,2.1,0.7c0.2,0.1,0.4,0,0.6-0.1
		c0.2-0.1,0.3-0.3,0.3-0.5V37c0-0.3-0.2-0.5-0.4-0.6c-1.3-0.4-2.5-0.6-3.6-0.6c-1,0-1.8,0.2-2.5,0.6c-0.7,0.4-1.2,0.9-1.6,1.6
		c-0.4,0.7-0.6,1.4-0.6,2.2c0,0.9,0.3,1.7,0.8,2.4c0.5,0.7,1.4,1.4,2.8,2.2l1,0.6c1.2,0.7,1.5,1,1.6,1.2c0.2,0.3,0.3,0.6,0.3,1
		c0,0.4-0.2,0.8-0.5,1.1c-0.4,0.3-0.8,0.5-1.5,0.5c-0.4,0-0.8,0-1.3-0.1c-0.5-0.1-1.3-0.4-2.3-0.9c-0.2-0.1-0.4-0.1-0.6,0
		c-0.2,0.1-0.3,0.3-0.3,0.5v2c0,0.3,0.2,0.5,0.4,0.6c1,0.3,1.8,0.5,2.3,0.5c0.5,0.1,1,0.1,1.5,0.1c1.8,0,3.2-0.5,4.1-1.4
		c1-0.9,1.4-2,1.4-3.3c0-0.9-0.3-1.8-0.8-2.5C82.4,43.9,81.5,43.2,80.1,42.4"/>
	<path class="st0" d="M96.6,36.2H84.7c-0.3,0-0.6,0.3-0.6,0.6v1.5c0,0.3,0.3,0.6,0.6,0.6H89v11.9c0,0.3,0.3,0.6,0.6,0.6h2
		c0.3,0,0.6-0.3,0.6-0.6V38.9h4.4c0.3,0,0.6-0.3,0.6-0.6v-1.5C97.2,36.5,96.9,36.2,96.6,36.2"/>
	<path class="st0" d="M101.6,38.9h0.6c1,0,1.5,0.1,1.7,0.2c0.3,0.1,0.5,0.3,0.6,0.5c0.1,0.2,0.2,0.5,0.2,0.8c0,0.6-0.2,1.1-0.6,1.6
		c-0.4,0.5-1.2,0.7-2.5,0.7h0V38.9z M105.5,44.5c0.4-0.2,0.8-0.5,1.1-0.8c0.4-0.5,0.8-1,1-1.6c0.2-0.6,0.4-1.2,0.4-1.8
		c0-1.1-0.3-2-1-2.8c-0.7-0.8-2-1.3-3.7-1.3h-4.2c-0.3,0-0.6,0.3-0.6,0.6v14c0,0.3,0.3,0.6,0.6,0.6h2c0.3,0,0.6-0.3,0.6-0.6v-5.3
		h0.9l3.8,5.6c0.1,0.2,0.3,0.3,0.5,0.3h2.4c0.2,0,0.4-0.1,0.5-0.3c0.1-0.2,0.1-0.4,0-0.6L105.5,44.5z"/>
	<path class="st0" d="M118.9,44.8h-3l1.5-3.8L118.9,44.8z M119.1,36.6c-0.1-0.2-0.3-0.4-0.6-0.4h-2c-0.2,0-0.5,0.2-0.6,0.4l-5.6,14
		c-0.1,0.2-0.1,0.4,0.1,0.6c0.1,0.2,0.3,0.3,0.5,0.3h1.8c0.2,0,0.5-0.2,0.6-0.4l1.4-3.5h5.1l1.4,3.5c0.1,0.2,0.3,0.4,0.6,0.4h2.1
		c0.2,0,0.4-0.1,0.5-0.3c0.1-0.2,0.1-0.4,0.1-0.6L119.1,36.6z"/>
	<path class="st0" d="M134.7,48.7h-5.6V36.8c0-0.3-0.3-0.6-0.6-0.6h-2c-0.3,0-0.6,0.3-0.6,0.6v14c0,0.3,0.3,0.6,0.6,0.6h8.2
		c0.3,0,0.6-0.3,0.6-0.6v-1.5C135.3,49,135,48.7,134.7,48.7"/>
	<path class="st0" d="M139.2,36.2h-2c-0.3,0-0.6,0.3-0.6,0.6v14c0,0.3,0.3,0.6,0.6,0.6h2c0.3,0,0.6-0.3,0.6-0.6v-14
		C139.9,36.5,139.6,36.2,139.2,36.2"/>
	<path class="st0" d="M149.6,44.8h-3l1.5-3.8L149.6,44.8z M155.3,50.6l-5.5-14c-0.1-0.2-0.3-0.4-0.6-0.4h-2c-0.2,0-0.5,0.2-0.6,0.4
		l-5.5,14c-0.1,0.2-0.1,0.4,0.1,0.6c0.1,0.2,0.3,0.3,0.5,0.3h1.8c0.2,0,0.5-0.2,0.6-0.4l1.4-3.5h5.1L152,51c0.1,0.2,0.3,0.4,0.6,0.4
		h2.1c0.2,0,0.4-0.1,0.5-0.3C155.3,51,155.3,50.8,155.3,50.6"/>
	<path class="st0" d="M38.6,18.9c0,0.2-0.1,0.3-0.3,0.3H6c-0.2,0-0.3-0.1-0.3-0.3v-2c0-0.2,0.1-0.3,0.3-0.3l32.3,0
		c0.2,0,0.3,0.1,0.3,0.3V18.9z"/>
	<path class="st0" d="M12.4,24.3c0,0.2-0.1,0.3-0.3,0.3H6c-0.2,0-0.3-0.1-0.3-0.3v-3.8c0-0.2,0.1-0.3,0.3-0.3h6.1
		c0.2,0,0.3,0.1,0.3,0.3V24.3z"/>
	<path class="st0" d="M12.4,51.1c0,0.2-0.1,0.3-0.3,0.3H6c-0.2,0-0.3-0.1-0.3-0.3v-3.8C5.7,47.1,5.8,47,6,47h6.1
		c0.2,0,0.3,0.1,0.3,0.3V51.1z"/>
	<path class="st0" d="M31.8,24.3c0,0.2,0.1,0.3,0.3,0.3h6.1c0.2,0,0.3-0.1,0.3-0.3v-3.8c0-0.2-0.1-0.3-0.3-0.3h-6.1
		c-0.2,0-0.3,0.1-0.3,0.3V24.3z"/>
	<path class="st0" d="M31.8,51.1c0,0.2,0.1,0.3,0.3,0.3h6.1c0.2,0,0.3-0.1,0.3-0.3v-3.8c0-0.2-0.1-0.3-0.3-0.3h-6.1
		c-0.2,0-0.3,0.1-0.3,0.3V51.1z"/>
	<path class="st0" d="M36,25.8c0-0.2-0.1-0.3-0.3-0.3h-3.5c-0.2,0-0.3,0.1-0.3,0.3v19.9c0,0.2,0.1,0.3,0.3,0.3h3.5
		c0.2,0,0.3-0.1,0.3-0.3V25.8z"/>
	<path class="st0" d="M12.4,25.8c0-0.2-0.1-0.3-0.3-0.3H8.6c-0.2,0-0.3,0.1-0.3,0.3v19.9c0,0.2,0.1,0.3,0.3,0.3h3.5
		c0.2,0,0.3-0.1,0.3-0.3V25.8z"/>
	<path class="st0" d="M23.7,24.2V28c0,0.5-0.8,0.8-0.8,0.8V24v-0.7l0.8,0.2c0.8,0.2,1.9,0.4,2.2,0.4c0.5,0.1,0.9,0.9,0.9,0.9
		L23.7,24.2z M23.7,30.8v3.9c0,0.5-0.8,0.9-0.8,0.9v-4.8V30l0.8,0.1c0.8,0.1,1.9,0.2,2.2,0.2c0.5,0,0.9,0.8,0.9,0.8L23.7,30.8z
		 M23.7,37.5v9.3c0,0.5-0.8,1.1-0.8,1.1V37.5v-0.7l0.8,0c0.8,0,1.9-0.1,2.2-0.1c0.5,0,0.9,0.7,0.9,0.7L23.7,37.5z M17.2,23v4.2
		c0,0.5-1,0.9-1,0.9v-5.4V22l1,0.2c1,0.2,2.3,0.5,2.7,0.5c0.6,0.1,1.1,1,1.1,1L17.2,23z M17.2,30.4v4.2c0,0.5-1,1.1-1,1.1v-5.4v-0.8
		l1,0.1c1,0.1,2.3,0.2,2.7,0.2c0.6,0,1.1,0.9,1.1,0.9L17.2,30.4z M17.2,37.8v10.4c0,0.5-1,1.3-1,1.3V37.9V37l1,0
		c1,0,2.3-0.1,2.7-0.1c0.6,0,1.1,0.7,1.1,0.7L17.2,37.8z M27.2,23L15,20.2c-0.3-0.1-0.6,0.1-0.6,0.5v30.2c0,0.3,0.3,0.5,0.6,0.5
		l12.3-3.2c0.3-0.1,0.6-0.4,0.6-0.8V23.7C27.8,23.4,27.5,23.1,27.2,23"/>
	<path class="st0" d="M17.7,15.6l8.9,0c0.1,0,0.2-0.1,0.2-0.3c-0.1-2.5-2.2-4.5-4.7-4.5c-2.5,0-4.6,2-4.7,4.5
		C17.5,15.5,17.6,15.6,17.7,15.6"/>
	<path class="st0" d="M21.5,3.5c-0.1-0.1-0.1-0.1-0.2-0.1c-1.7,0.1-3.3,0.5-4.7,1.3c-0.1,0-0.1,0.1-0.1,0.2c0,0.1,0,0.2,0,0.2l3,4.9
		c0.1,0.1,0.1,0.1,0.2,0.1c0,0,0.1,0,0.1,0c0.5-0.2,1-0.4,1.6-0.4c0.1,0,0.3-0.1,0.3-0.3V3.7C21.6,3.6,21.5,3.5,21.5,3.5"/>
	<path class="st0" d="M16.5,13.1l-5.1-2.7c-0.1,0-0.2,0-0.2,0c-0.1,0-0.1,0.1-0.2,0.1c-0.7,1.5-1.1,3.1-1.1,4.8c0,0.1,0,0.2,0.1,0.2
		c0.1,0.1,0.1,0.1,0.2,0.1H16c0.2,0,0.3-0.1,0.3-0.3c0-0.6,0.1-1.3,0.4-1.9C16.7,13.3,16.6,13.2,16.5,13.1"/>
	<path class="st0" d="M18.5,10.5l-3-4.9c0-0.1-0.1-0.1-0.2-0.1c-0.1,0-0.2,0-0.2,0c-1.4,0.9-2.6,2.2-3.4,3.6c0,0.1-0.1,0.1,0,0.2
		c0,0.1,0.1,0.1,0.1,0.2l5.1,2.7c0,0,0.1,0,0.1,0c0.1,0,0.2,0,0.2-0.1c0.3-0.4,0.7-0.8,1.1-1.2C18.6,10.8,18.6,10.7,18.5,10.5"/>
	<path class="st0" d="M32.6,9.1c-0.8-1.4-2-2.6-3.4-3.6c-0.1,0-0.1-0.1-0.2,0c-0.1,0-0.1,0.1-0.2,0.1l-2.9,4.9
		c-0.1,0.1,0,0.3,0.1,0.4c0.4,0.3,0.8,0.7,1.1,1.2c0.1,0.1,0.1,0.1,0.2,0.1c0,0,0.1,0,0.1,0l5-2.7c0.1,0,0.1-0.1,0.1-0.2
		C32.6,9.3,32.6,9.2,32.6,9.1"/>
	<path class="st0" d="M28,4.9c0-0.1-0.1-0.1-0.1-0.2c-1.5-0.8-3.1-1.2-4.7-1.3c-0.1,0-0.2,0-0.2,0.1c-0.1,0.1-0.1,0.1-0.1,0.2v5.7
		c0,0.1,0.1,0.3,0.3,0.3c0.5,0.1,1.1,0.2,1.6,0.4c0,0,0.1,0,0.1,0c0.1,0,0.2,0,0.2-0.1l2.9-4.9C28,5.1,28,5,28,4.9"/>
	<path class="st0" d="M33.3,10.6c0-0.1-0.1-0.1-0.2-0.1c-0.1,0-0.2,0-0.2,0l-5,2.7c-0.1,0.1-0.2,0.2-0.1,0.4
		c0.2,0.6,0.4,1.2,0.4,1.9c0,0.2,0.1,0.3,0.3,0.3h5.7c0.1,0,0.1,0,0.2-0.1c0.1-0.1,0.1-0.1,0.1-0.2C34.3,13.7,34,12.1,33.3,10.6"/>
	<path class="st0" d="M166.9,31.8h8.3c0.3,0,0.5-0.2,0.5-0.5v-1.5c0-0.3-0.2-0.5-0.5-0.5h-5.8v-4.1h4.4c0.3,0,0.5-0.2,0.5-0.5v-1.5
		c0-0.3-0.2-0.5-0.5-0.5h-4.4v-3.5h5.4c0.3,0,0.5-0.2,0.5-0.5v-1.5c0-0.3-0.2-0.5-0.5-0.5h-7.9c-0.3,0-0.5,0.2-0.5,0.5v14.1
		C166.4,31.5,166.6,31.8,166.9,31.8"/>
	<path class="st0" d="M56,30.5l2.9-7.8v8.5c0,0.3,0.2,0.5,0.5,0.5h1.9c0.3,0,0.5-0.2,0.5-0.5V17.1c0-0.3-0.2-0.5-0.5-0.5h-2.5
		c-0.2,0-0.4,0.1-0.5,0.3l-3.5,9.6L51.3,17c-0.1-0.2-0.3-0.3-0.5-0.3h-2.8c-0.3,0-0.5,0.2-0.5,0.5v14.1c0,0.3,0.2,0.5,0.5,0.5h1.7
		c0.3,0,0.5-0.2,0.5-0.5v-8.5l2.8,7.7c0.1,0.2,0.3,0.3,0.5,0.3h1.9C55.7,30.8,55.9,30.7,56,30.5"/>
	<path class="st0" d="M71.4,25.3h-3.3l1.6-4.1L71.4,25.3z M71.5,16.9c-0.1-0.2-0.3-0.3-0.5-0.3h-2c-0.2,0-0.4,0.1-0.5,0.3L62.9,31
		c-0.1,0.2,0,0.3,0.1,0.5c0.1,0.1,0.3,0.2,0.4,0.2h1.9c0.2,0,0.4-0.1,0.5-0.3l1.4-3.6h5.3l1.4,3.6c0.1,0.2,0.3,0.3,0.5,0.3h2.2
		c0.2,0,0.3-0.1,0.4-0.2C77,31.4,77,31.2,77,31L71.5,16.9z"/>
	<path class="st0" d="M91.7,31.8h2c0.3,0,0.5-0.2,0.5-0.5V17.1c0-0.3-0.2-0.5-0.5-0.5h-2c-0.3,0-0.5,0.2-0.5,0.5v14.1
		C91.1,31.5,91.4,31.8,91.7,31.8"/>
	<path class="st0" d="M105.9,31.2v-1.5c0-0.3-0.2-0.5-0.5-0.5h-5.8v-4.1h4.4c0.3,0,0.5-0.2,0.5-0.5v-1.5c0-0.3-0.2-0.5-0.5-0.5h-4.4
		v-3.5h5.4c0.3,0,0.5-0.2,0.5-0.5v-1.5c0-0.3-0.2-0.5-0.5-0.5h-7.9c-0.3,0-0.5,0.2-0.5,0.5v14.1c0,0.3,0.2,0.5,0.5,0.5h8.3
		C105.7,31.8,105.9,31.5,105.9,31.2"/>
	<path class="st0" d="M138.4,16.6h-12c-0.3,0-0.5,0.2-0.5,0.5v1.5c0,0.3,0.2,0.5,0.5,0.5h4.5v12.1c0,0.3,0.2,0.5,0.5,0.5h2
		c0.3,0,0.5-0.2,0.5-0.5V19.2h4.5c0.3,0,0.5-0.2,0.5-0.5v-1.5C139,16.8,138.7,16.6,138.4,16.6"/>
	<path class="st0" d="M150,24.1c0,1.7-0.4,5.4-3.9,5.4c-3.5,0-3.9-3.7-3.9-5.4c0-1.8,0.5-5.4,3.9-5.4C149.5,18.7,150,22.2,150,24.1
		 M146.1,16.2c-3.1,0-4.7,1.7-5.2,2.1c-0.6,0.6-2,2.5-2,5.8c0,2,0.6,4.3,2,5.9c0.4,0.4,2,2.1,5.1,2.1c1.5,0,3.6-0.4,5.2-2.2
		c0.4-0.5,1.9-2.3,1.9-5.7c0-1.5-0.3-3.8-1.9-5.7C150.8,17.8,149.2,16.2,146.1,16.2"/>
	<path class="st0" d="M81.3,19.2h1.1c0.6,0,1,0,1.4,0.2c0.3,0.2,0.9,0.5,0.9,1.4c0,1.7-1.4,2.4-2.8,2.4h-0.6V19.2z M89.6,31.5
		c0.1-0.2,0.1-0.4,0-0.5l-4.3-6.1c1-0.5,2.5-1.8,2.6-4.2c0-1-0.3-2-1-2.8C86,17,84.8,16.6,83,16.6h-4.3c-0.3,0-0.5,0.2-0.5,0.5v14.1
		c0,0.3,0.2,0.5,0.5,0.5h2c0.3,0,0.5-0.2,0.5-0.5v-5.4h1.1l3.9,5.7c0.1,0.1,0.3,0.2,0.4,0.2h2.5C89.3,31.8,89.5,31.7,89.6,31.5"/>
	<path class="st0" d="M186.5,25.1c-0.2-0.4-1.3-1.4-3.5-2.6c-1.3-0.7-2.4-1.3-2.4-2.2c0-0.2,0.1-1.5,1.9-1.4c1.1,0,1.9,0.4,3.1,0.8
		c0.4,0.1,0.8-0.2,0.8-0.5v-1.8c0-0.2-0.2-0.5-0.4-0.5c-0.7-0.2-2.1-0.6-3.6-0.6c-2.9,0-3.9,1.7-4.2,2.1c-0.6,0.9-1.1,2.8,0.1,4.6
		c1.5,1.9,4.6,2.8,5.5,4c0.2,0.3,0.6,1.4-0.2,2.2c-0.5,0.5-1.5,0.7-2.9,0.4c-0.5-0.1-1.3-0.4-2.4-0.9c-0.3-0.1-0.8,0.1-0.8,0.5v2
		c0,0.2,0.2,0.5,0.4,0.5c3.5,1,6.3,0.8,8-0.7C187.5,29.3,187.7,26.9,186.5,25.1"/>
	<path class="st0" d="M158.9,23.6h-0.7v-4.4h1.1c0.3,0,0.9,0,1.3,0.2c0.6,0.3,1,1,1,1.7C161.6,22.7,160.6,23.6,158.9,23.6 M162.5,17
		c-0.7-0.3-1.7-0.4-3.1-0.4h-3.8c-0.3,0-0.6,0.2-0.6,0.5v14.1c0,0.3,0.2,0.5,0.6,0.5h2c0.3,0,0.5-0.2,0.5-0.5v-5
		c5.7,0,6.5-3.5,6.5-5.3C164.6,19.8,164.3,17.9,162.5,17"/>
	<path class="st0" d="M124.7,25.1c-0.2-0.4-1.3-1.4-3.5-2.6c-1.3-0.7-2.4-1.3-2.4-2.2c0-0.2,0.1-1.5,1.9-1.4c1.1,0,2,0.4,3.1,0.8
		c0.4,0.1,0.8-0.2,0.8-0.5v-1.8c0-0.2-0.2-0.5-0.4-0.5c-0.7-0.2-2.1-0.6-3.6-0.6c-2.9,0-3.9,1.7-4.2,2.1c-0.6,0.9-1.1,2.8,0.1,4.6
		c1.5,1.9,4.6,2.8,5.5,4c0.2,0.3,0.6,1.4-0.2,2.2c-0.5,0.5-1.5,0.7-2.9,0.4c-0.5-0.1-1.3-0.4-2.4-0.9c-0.3-0.1-0.8,0.1-0.8,0.5v2
		c0,0.2,0.2,0.5,0.4,0.5c3.5,1,6.3,0.8,8-0.7C125.7,29.3,125.9,26.9,124.7,25.1"/>
</g>
</svg>
